<svg width="662" height="816" viewBox="0 0 662 816" fill="none" xmlns="http://www.w3.org/2000/svg">
<path d="M373 74L186 366C200 364 214 362 228 362C482.5 389.5 272.5 456.5 280 589C288.42 737.762 501 807 228 816C122 816 32 743 7 645C2 628 0 608 0 589C0 546 13 506 33 472L39 462L311 35L373 74ZM106 491L87 519C77 541 71 564 71 589C71 675 142 746 228 746C314 746 210 721.5 210 598.5C210 462 314 428 228 428C179 428 135 456 106 491Z" fill="#6875F5"/>
<g clip-path="url(#clip0)">
<path d="M289 74L476 366C462 364 448 362 434 362C309 362 207 464 207 589C207 715 309 816 434 816C540 816 630 743 655 645C660 628 662 608 662 589C662 546 649 506 629 472L623 462L351 35L289 74ZM556 491L575 519C585 541 591 564 591 589C591 675 520 746 434 746C348 746 279 675 279 589C279 503 348 433 434 433C483 433 527 456 556 491Z" fill="#6875F5"/>
</g>
<path d="M331 0L359.579 48H302.421L331 0Z" fill="#6875F5"/>
<path d="M435.912 469.188C502.353 469.188 556.225 523.06 556.225 589.5C556.225 655.94 502.353 709.812 435.912 709.812C369.472 709.812 315.6 655.94 315.6 589.5C315.6 523.06 369.472 469.188 435.912 469.188ZM388.513 626.48L396.193 636.954C396.36 637.182 396.571 637.374 396.813 637.521C397.054 637.667 397.323 637.765 397.602 637.807C397.882 637.849 398.167 637.836 398.441 637.768C398.716 637.7 398.974 637.578 399.201 637.41L443.62 605.022C443.897 604.824 444.122 604.561 444.276 604.258C444.43 603.954 444.509 603.618 444.506 603.277V529.344C444.506 528.162 443.539 527.195 442.358 527.195H429.44C428.259 527.195 427.292 528.162 427.292 529.344V595.811L388.996 623.499C388.029 624.17 387.814 625.513 388.513 626.48Z" fill="#6875F5"/>
<defs>
<clipPath id="clip0">
<rect width="455" height="781" fill="white" transform="matrix(-1 0 0 1 662 35)"/>
</clipPath>
</defs>
</svg>
